<?xml version="1.0" encoding="UTF-8" standalone="no"?><svg xmlns="http://www.w3.org/2000/svg" id="pixil-frame-0-(2)" width="10" height="17" viewBox="0 0 10 17" preserveAspectRatio="xMidYMid meet" rendering="crispEdges"><rect id="1-1" x="0" y="0" width="1" height="1" shape-rendering="crispEdges" style="fill:#b4b4b4;opacity:255;"></rect><rect id="2-1" x="1" y="0" width="1" height="1" shape-rendering="crispEdges" style="fill:#ffffff;opacity:255;"></rect><rect id="4-1" x="3" y="0" width="1" height="1" shape-rendering="crispEdges" style="fill:#b4b4b4;opacity:255;"></rect><rect id="9-1" x="8" y="0" width="1" height="1" shape-rendering="crispEdges" style="fill:#ffffff;opacity:255;"></rect><rect id="10-1" x="9" y="0" width="1" height="1" shape-rendering="crispEdges" style="fill:#b4b4b4;opacity:255;"></rect><rect id="1-2" x="0" y="1" width="1" height="1" shape-rendering="crispEdges" style="fill:#b4b4b4;opacity:255;"></rect><rect id="2-2" x="1" y="1" width="1" height="1" shape-rendering="crispEdges" style="fill:#ffffff;opacity:255;"></rect><rect id="5-2" x="4" y="1" width="1" height="1" shape-rendering="crispEdges" style="fill:#b4b4b4;opacity:255;"></rect><rect id="10-2" x="9" y="1" width="1" height="1" shape-rendering="crispEdges" style="fill:#ffffff;opacity:255;"></rect><rect id="2-3" x="1" y="2" width="1" height="1" shape-rendering="crispEdges" style="fill:#ffffff;opacity:255;"></rect><rect id="6-3" x="5" y="2" width="1" height="1" shape-rendering="crispEdges" style="fill:#b4b4b4;opacity:255;"></rect><rect id="7-3" x="6" y="2" width="1" height="1" shape-rendering="crispEdges" style="fill:#b4b4b4;opacity:255;"></rect><rect id="8-3" x="7" y="2" width="1" height="1" shape-rendering="crispEdges" style="fill:#b4b4b4;opacity:255;"></rect><rect id="9-3" x="8" y="2" width="1" height="1" shape-rendering="crispEdges" style="fill:#b4b4b4;opacity:255;"></rect><rect id="10-3" x="9" y="2" width="1" height="1" shape-rendering="crispEdges" style="fill:#ffffff;opacity:255;"></rect><rect id="3-4" x="2" y="3" width="1" height="1" shape-rendering="crispEdges" style="fill:#ffffff;opacity:255;"></rect><rect id="9-4" x="8" y="3" width="1" height="1" shape-rendering="crispEdges" style="fill:#ffffff;opacity:255;"></rect><rect id="10-4" x="9" y="3" width="1" height="1" shape-rendering="crispEdges" style="fill:#ffffff;opacity:255;"></rect><rect id="3-5" x="2" y="4" width="1" height="1" shape-rendering="crispEdges" style="fill:#ffffff;opacity:255;"></rect><rect id="8-5" x="7" y="4" width="1" height="1" shape-rendering="crispEdges" style="fill:#ffffff;opacity:255;"></rect><rect id="9-5" x="8" y="4" width="1" height="1" shape-rendering="crispEdges" style="fill:#b4b4b4;opacity:255;"></rect><rect id="10-5" x="9" y="4" width="1" height="1" shape-rendering="crispEdges" style="fill:#ffffff;opacity:255;"></rect><rect id="3-6" x="2" y="5" width="1" height="1" shape-rendering="crispEdges" style="fill:#ffffff;opacity:255;"></rect><rect id="4-6" x="3" y="5" width="1" height="1" shape-rendering="crispEdges" style="fill:#ffffff;opacity:255;"></rect><rect id="5-6" x="4" y="5" width="1" height="1" shape-rendering="crispEdges" style="fill:#ffffff;opacity:255;"></rect><rect id="6-6" x="5" y="5" width="1" height="1" shape-rendering="crispEdges" style="fill:#ffffff;opacity:255;"></rect><rect id="7-6" x="6" y="5" width="1" height="1" shape-rendering="crispEdges" style="fill:#ffffff;opacity:255;"></rect><rect id="9-6" x="8" y="5" width="1" height="1" shape-rendering="crispEdges" style="fill:#b4b4b4;opacity:255;"></rect><rect id="3-7" x="2" y="6" width="1" height="1" shape-rendering="crispEdges" style="fill:#b4b4b4;opacity:255;"></rect><rect id="4-7" x="3" y="6" width="1" height="1" shape-rendering="crispEdges" style="fill:#ffffff;opacity:255;"></rect><rect id="8-7" x="7" y="6" width="1" height="1" shape-rendering="crispEdges" style="fill:#b4b4b4;opacity:255;"></rect><rect id="2-8" x="1" y="7" width="1" height="1" shape-rendering="crispEdges" style="fill:#b4b4b4;opacity:255;"></rect><rect id="4-8" x="3" y="7" width="1" height="1" shape-rendering="crispEdges" style="fill:#ffffff;opacity:255;"></rect><rect id="8-8" x="7" y="7" width="1" height="1" shape-rendering="crispEdges" style="fill:#b4b4b4;opacity:255;"></rect><rect id="2-9" x="1" y="8" width="1" height="1" shape-rendering="crispEdges" style="fill:#b4b4b4;opacity:255;"></rect><rect id="4-9" x="3" y="8" width="1" height="1" shape-rendering="crispEdges" style="fill:#ffffff;opacity:255;"></rect><rect id="8-9" x="7" y="8" width="1" height="1" shape-rendering="crispEdges" style="fill:#b4b4b4;opacity:255;"></rect><rect id="2-10" x="1" y="9" width="1" height="1" shape-rendering="crispEdges" style="fill:#b4b4b4;opacity:255;"></rect><rect id="4-10" x="3" y="9" width="1" height="1" shape-rendering="crispEdges" style="fill:#ffffff;opacity:255;"></rect><rect id="8-10" x="7" y="9" width="1" height="1" shape-rendering="crispEdges" style="fill:#b4b4b4;opacity:255;"></rect><rect id="3-11" x="2" y="10" width="1" height="1" shape-rendering="crispEdges" style="fill:#b4b4b4;opacity:255;"></rect><rect id="5-11" x="4" y="10" width="1" height="1" shape-rendering="crispEdges" style="fill:#ffffff;opacity:255;"></rect><rect id="7-11" x="6" y="10" width="1" height="1" shape-rendering="crispEdges" style="fill:#b4b4b4;opacity:255;"></rect><rect id="4-12" x="3" y="11" width="1" height="1" shape-rendering="crispEdges" style="fill:#b4b4b4;opacity:255;"></rect><rect id="5-12" x="4" y="11" width="1" height="1" shape-rendering="crispEdges" style="fill:#b4b4b4;opacity:255;"></rect><rect id="7-12" x="6" y="11" width="1" height="1" shape-rendering="crispEdges" style="fill:#b4b4b4;opacity:255;"></rect><rect id="5-13" x="4" y="12" width="1" height="1" shape-rendering="crispEdges" style="fill:#ffffff;opacity:255;"></rect><rect id="6-13" x="5" y="12" width="1" height="1" shape-rendering="crispEdges" style="fill:#b4b4b4;opacity:255;"></rect><rect id="4-14" x="3" y="13" width="1" height="1" shape-rendering="crispEdges" style="fill:#b4b4b4;opacity:255;"></rect><rect id="5-14" x="4" y="13" width="1" height="1" shape-rendering="crispEdges" style="fill:#ffffff;opacity:255;"></rect><rect id="4-15" x="3" y="14" width="1" height="1" shape-rendering="crispEdges" style="fill:#b4b4b4;opacity:255;"></rect><rect id="5-15" x="4" y="14" width="1" height="1" shape-rendering="crispEdges" style="fill:#ffffff;opacity:255;"></rect><rect id="4-16" x="3" y="15" width="1" height="1" shape-rendering="crispEdges" style="fill:#b4b4b4;opacity:255;"></rect><rect id="5-16" x="4" y="15" width="1" height="1" shape-rendering="crispEdges" style="fill:#ffffff;opacity:255;"></rect><rect id="4-17" x="3" y="16" width="1" height="1" shape-rendering="crispEdges" style="fill:#b4b4b4;opacity:255;"></rect><rect id="5-17" x="4" y="16" width="1" height="1" shape-rendering="crispEdges" style="fill:#ffffff;opacity:255;"></rect></svg>